<svg version="1.2" xmlns="http://www.w3.org/2000/svg" viewBox="0 0 882 153" width="882" height="153">
	<title>Adib-01-1-svg</title>
	<defs>
		<linearGradient id="g1" x1="296.7" y1="53" x2="378.9" y2="53" gradientUnits="userSpaceOnUse">
			<stop offset="0" stop-color="#1387c8"/>
			<stop offset="1" stop-color="#24afe3"/>
		</linearGradient>
		<linearGradient id="g2" x1="343.4" y1="54.1" x2="424.6" y2="54.1" gradientUnits="userSpaceOnUse">
			<stop offset="0" stop-color="#cae2f4"/>
			<stop offset="1" stop-color="#18b7d8"/>
		</linearGradient>
	</defs>
	<style>
		.s0 { fill: #1a427a } 
		.s1 { fill: none;stroke: #f4f4f4 } 
		.s2 { fill: #06679a } 
		.s3 { fill: url(#g1) } 
		.s4 { fill: #21aae2 } 
		.s5 { fill: url(#g2) } 
		.s6 { fill: #ffffff } 
	</style>
	<g id="Layer">
		<path id="Layer" fill-rule="evenodd" class="s0" d="m94.1 115l-7-17.8h-25.9l-6.6 17.8h-11l27-70h7.7l27.7 70zm-17-45.8c-1.2-3.5-2.1-6.4-2.5-8.6h-0.1c-0.6 2.4-1.5 5.2-2.8 8.5l-6.9 18.8h18.8z" />
		<path id="Layer" fill-rule="evenodd" class="s0" d="m133.6 115h-18.8v-69.8h19.2c25.8 0 38.5 14.2 38.5 34.2c0 20.5-13.6 35.6-38.9 35.6zm0.6-60.2h-8.2v50.6h8.2c19.4 0 26.6-12.2 26.6-25.9c0-14.1-8.6-24.7-26.6-24.7z" />
		<path id="Layer" class="s0" d="m186.1 45.2h11.1v69.8h-11.1z" />
		<path id="Layer" fill-rule="evenodd" class="s0" d="m231.5 115h-20.5v-69.8h21.2c13.4 0 19.5 8.9 19.5 17.2c0 6.5-3.1 12.2-8.9 14.8v0.1c7.3 1.6 13.4 8.3 13.4 17c-0.1 9.7-6.8 20.7-24.7 20.7zm-9.4-60.2v19.8h7.9c5.2 0 10.3-3.8 10.3-10.2c0-5.8-3.5-9.6-11.1-9.6zm9.4 29.4h-9.4v21.3h8.9c9 0 13.6-4.5 13.6-11.1c0-6-4.9-10.2-13.1-10.2z" />
		<path id="Layer" fill-rule="evenodd" class="s0" d="m639.1 103.3c0 8-3.6 12.6-9.8 12.6c-3.2 0-5.8-1.3-7.5-3.8c-1.3 2-3.4 3.8-6.8 3.8h-113.8v-18.9c-2.3 0-5 0.3-5 7.1v11.8h-27.4c0.3-2.9 0.8-7.8 2.5-12.3c2.7-6.8 6.7-9.8 14.2-9.7v3.8c-3.6 0-7.3 0.4-9.8 5.8c-1.4 2.9-2.1 8.1-2.1 8.1h18.2v-8.5c0-10.4 6.1-10.9 13.6-10.8v19.3h109.1c2 0 3.7-1.3 4.5-3.3c0.8-2.1 0.7-5.8 0.7-5.8c0.2-7.5 3.8-12 9.6-12c6.1 0 9.8 4.7 9.8 12.8zm-4.5 0c0-6.1-1.7-9.1-5.3-9.1c-3.5 0-5.3 3-5.3 9c0 5.8 1.8 8.7 5.3 8.7c3.6 0 5.4-2.9 5.3-8.6z" />
		<path id="Layer" fill-rule="evenodd" class="s0" d="m618.5 57.4c0 4.1-2.1 12.1-10.5 12.1h-35.4c-3.3-0.1-5.9-1.2-7.5-3.2c-1.5 1.9-3.7 3-6.5 3.2v0.1h-57.1v-18.9c-2.3 0-5 0.3-5 7.1v11.8h-27.4c0.3-2.9 0.7-7.8 2.5-12.3c2.7-6.7 6.7-9.7 14.2-9.6v3.8c-3.6 0-7.3 0.4-9.8 5.8c-1.4 2.9-2.1 8.1-2.1 8.1h18.2v-8.5c0-10.4 6.1-10.9 13.6-10.8v19.3h51.8c3.2 0 5.1-1.8 5.1-4.9v-11.5h4.3v11.7c0 3.1 2.2 4.8 5.8 4.8h20.2v-25.3h4.3l-0.6 17.7v0.1c2.3-5.1 6.2-10.8 12.7-10.8c6.4 0 9.1 5.8 9.2 10.2zm-4.4 0c0-2.8-1.5-6.3-5-6.3c-7.7 0-10.9 10.9-12.1 14.4h11c4.6 0 6.1-4 6.1-8.1z" />
		<path id="Layer" class="s0" d="m823 115.7h-10.6v-4.2h4.3v-28.5h4.4v28.5h1.8c1.8 0 3.5-1.4 4.2-3.2c0.7-1.9 0.7-3.8 0.7-5.9v-19.4h4.3v22.5c0 6.4-4 10.2-9.1 10.2z" />
		<path id="Layer" class="s0" d="m836.9 83h4.3v32.7h-4.3z" />
		<path id="Layer" class="s0" d="m807.5 95v12.7c0 5.2-3 8-7.8 8h-128.7c-3.3 0-5.8-1-7.6-3.2c-1.7 2.2-4 3.2-6.8 3.2h-10.6v-4.2h4.3v-28.5h4.4v28.5h1.8c3.2 0 4.9-3 4.9-9v-19.4h4.3c0 0 0 24 0 25.3c0 1.8 2.3 3.2 5.3 3.2h107.3v-16.6h4.2v16.6h8.2v-16.6h4.3v16.6h4.6c2.7 0 3.6-1.1 3.6-6v-10.6z" />
		<path id="Layer" fill-rule="evenodd" class="s0" d="m672.7 49v10.7c0 9.2-8.1 9.9-8.5 9.9h-22.3v0.1c-0.5 5.6-4.3 9-9 9h-0.1v-3.8c2.7-0.1 4.7-2.9 4.7-5.2h-5c-3.9 0-9.3-2.9-9.3-11.4c0-8.2 3.6-12.1 9.3-12.1h9.5v19.3h20.7c4 0 5.8-2.2 5.8-6v-10.5zm-35 1.1h-5.1c-4.1 0-5 5.1-5 8.2c0 3 1.4 7.2 5 7.2h5.1z" />
		<path id="Layer" class="s0" d="m677.6 37h4.3v32.7h-4.3zm-3.6-2.8v-2.4h2.2v-0.5c0-1.2 0.3-5 4-5c2.1 0 3.1 1.1 3.8 3h-2.6c-0.3-0.5-0.6-0.7-1.2-0.7c-1.3 0-1.6 1.5-1.6 2.6v0.6h5.7v2.4z" />
		<path id="Layer" fill-rule="evenodd" class="s0" d="m718.5 69.6h-13c-6.3 0-10-3.8-10-9.9v-10.7h4.3v10.5c0 3.8 1.8 6 5.7 6h5.3c-1.3-2.1-1.9-3.9-1.9-7.4c0-7.7 3.7-11.9 9.7-11.9c6 0 9.6 4.2 9.6 12c-0.1 7.8-3.7 11.4-9.7 11.4zm0-19.7c-3.5 0-5.3 2.4-5.3 8.2c0 5.6 1.8 7.4 5.3 7.4c3.4 0 5.3-1.9 5.3-7.3c-0.1-6-1.8-8.3-5.3-8.3z" />
		<path id="Layer" fill-rule="evenodd" class="s0" d="m841 56.9c0 8-3.6 12.6-9.8 12.6c-3.2 0-5.8-1.3-7.5-3.8c-1.3 2.1-4.1 3.8-6.4 3.8h-72.4c-2.3 0-4.2-0.6-5.7-1.5v0.4c0 5.4-3.3 10.4-9.2 10.2v-3.8c1.6-0.1 3.4-1.4 4.2-3.3c0.9-1.9 0.7-4.4 0.7-5.8v-16.7h4.3v12c0 2.9 2.3 4.5 5.7 4.5h39.8v-14.3h4.2v6.7c2.3-4.9 6.2-10.6 12.7-10.6c6.4 0 9.1 5.7 9.1 10.3c0 2.1-0.6 5.3-2.3 7.9h8.1c2 0 3.6-1.3 4.5-3.3c0.8-2.1 0.7-5.8 0.7-5.8c0.3-7.5 3.9-12 9.7-12c6.1 0 9.8 4.8 9.6 12.5zm-34.5 0.5c0-2.8-1.5-6.3-5-6.3c-7.7 0-10.9 10.8-12.1 14.4h11.6c4.1 0 5.5-4.1 5.5-8.1zm30.2-0.1c0-6.1-1.7-9.1-5.3-9.1c-3.5 0-5.3 3-5.3 9c0 5.8 1.8 8.7 5.3 8.7c3.5 0 5.3-2.9 5.3-8.6z" />
		<path id="Layer" class="s0" d="m483.3 76.3c0 1.3-1 2.3-2.3 2.3c-1.3 0-2.3-1-2.3-2.3c0-1.3 1-2.3 2.3-2.3c1.2 0 2.3 1 2.3 2.3z" />
		<path id="Layer" class="s0" d="m489.7 76.3c0 1.3-1 2.3-2.3 2.3c-1.3 0-2.3-1-2.3-2.3c0-1.3 1-2.3 2.3-2.3c1.3 0 2.3 1 2.3 2.3z" />
		<path id="Layer" class="s0" d="m566.9 76.3c0 1.3-1 2.3-2.3 2.3c-1.3 0-2.3-1-2.3-2.3c0-1.3 1-2.3 2.3-2.3c1.3 0 2.3 1 2.3 2.3z" />
		<path id="Layer" class="s0" d="m672.7 76.3c0 1.3-1 2.3-2.3 2.3c-1.3 0-2.3-1-2.3-2.3c0-1.3 1-2.3 2.3-2.3c1.3 0 2.3 1 2.3 2.3z" />
		<path id="Layer" class="s0" d="m610.6 39.1c0 1.3-1 2.3-2.3 2.3c-1.3 0-2.3-1-2.3-2.3c0-1.3 1-2.3 2.3-2.3c1.2 0.1 2.3 1.1 2.3 2.3z" />
		<path id="Layer" class="s0" d="m720.7 39.1c0 1.3-1 2.3-2.3 2.3c-1.3 0-2.3-1-2.3-2.3c0-1.3 1-2.3 2.3-2.3c1.3 0.1 2.3 1.1 2.3 2.3z" />
		<path id="Layer" class="s0" d="m483.3 122.5c0 1.3-1 2.3-2.3 2.3c-1.3 0-2.3-1-2.3-2.3c0-1.3 1-2.3 2.3-2.3c1.2 0 2.3 1 2.3 2.3z" />
		<path id="Layer" class="s0" d="m489.7 122.5c0 1.3-1 2.3-2.3 2.3c-1.3 0-2.3-1-2.3-2.3c0-1.3 1-2.3 2.3-2.3c1.3 0 2.3 1 2.3 2.3z" />
		<path id="Layer" class="s0" d="m812.3 125.2v-2.3h2.1v-0.5c0-1.2 0.3-5 4-5c2.2 0 3.1 1.1 3.8 3h-2.6c-0.3-0.5-0.6-0.7-1.2-0.7c-1.3 0-1.5 1.4-1.5 2.6v0.6h5.7v2.3z" />
	</g>
	<path id="Layer" class="s1" d="m362.4 145.1c-37.4 0-67.7-30.3-67.7-67.7c0-37.4 30.3-67.7 67.7-67.7c37.4 0 67.7 30.3 67.7 67.7c0 37.4-30.3 67.7-67.7 67.7z" />
	<path id="Layer" class="s2" d="m393.1 137.8c-9.3 4.6-19.7 7.3-30.7 7.3c-37.3 0-67.6-30.2-67.7-67.5c0.1-5.3 0.7-10.5 1.9-15.5l5.4-4.9h16.9l3.3 7.7c0 0 13.3 15.5 13.3 16.5c0 1 11.9 14.5 11.9 14.5c0 0 7.7 30.5 45.5 41.8c0.1 0.1 0.1 0.1 0.2 0.1z" />
	<path id="Layer" class="s3" d="m378.8 12.3l-4.7 20l-13.5 28.5l-6.3 20.2l-6.9 14.9v0.1c-0.3 0-0.5-0.1-0.8-0.1l-0.3-0.1c-1.3-0.2-2.5-0.4-3.7-0.6c-0.6-0.1-1.3-0.3-1.9-0.4c-0.1-0.1-0.2-0.1-0.3-0.1c-18.2-4.3-30-14.7-36.7-22.6l-6.9-9.9l-0.1-0.6c0-0.2 0.1-0.3 0.1-0.5c0.1-0.2 0.2-0.4 0.2-0.6c0.2-0.8 0.4-1.7 0.7-2.5c0.1-0.2 0.1-0.4 0.2-0.6c0.3-0.8 0.6-1.7 0.9-2.5c0.1-0.2 0.1-0.3 0.2-0.5c0.3-1 0.7-2 1.1-2.9c10.3-24.3 34.4-41.4 62.4-41.4h0.1q3 0 6 0.3c0.5 0.1 1.1 0.1 1.7 0.2c0.2 0 0.4 0.1 0.6 0.1c2.7 0.3 5.4 0.9 7.9 1.6z" />
	<path id="Layer" class="s4" d="m430.3 77.7c0 0.5 0 0.9 0 1.4c0 0.3 0 0.7 0 1c-1 25.2-15.8 46.9-37 57.7q-0.1 0-0.3 0c-37.8-11.3-45.5-41.8-45.5-41.8l10.4-11.6l24.5-21.5l25-15.7l13.5-3.6c5.8 10 9.2 21.6 9.4 34.1z" />
	<path id="Layer" class="s5" d="m405.1 67.2c-2.3 2.3-2.6 12.3-5.5 14.5c-12.2 9.1-29.3 16.2-52.2 14.1c0 0-20.4-51.4 31.4-83.6c20.7 5.1 37.6 19.7 45.9 38.9c-0.7 0.1-3.4 1.2-10 9.1c-1.8 2.1-7.3 4.8-9.6 7z" />
	<path id="Layer" class="s6" d="m430.3 77.5q0 0.6 0 1.2c0 0.5 0 1.1 0 1.7c0 0.6-0.1 1.2-0.1 1.8c-0.1 0.2-0.1 0.5-0.1 0.8c-1 12.3-5.3 24.4-12.9 34.8c0.4-0.7 0.9-1.4 1.3-2.1c3-5.9 5.4-12.2 6.7-18.9c1.5-9.6 0.5-20-2.7-30.2l-10 31.3l1.4-34.4l-30.6 52l19.9-58l-45.4 30.2l41.7-38.4l-56.2 6.3l56.7-15.8l-40.6-14.3l36.7 4.3c-15.6-12.3-34.4-17.7-51.1-15.5c-5.6 1-11 2.7-16.1 4.9c-0.9 0.4-1.7 0.9-2.5 1.3c10.4-6.6 22.8-10.4 36.1-10.4c36.2 0 65.7 28.4 67.6 64.2c0 0.2 0 0.3 0 0.4c0 0.9 0.1 1.8 0.2 2.8z" />
</svg>